<svg width="30" height="30" viewBox="0 0 30 30" fill="none" xmlns="http://www.w3.org/2000/svg">
<path d="M22.001 0V7.99963H30.0006L22.001 0Z" fill="#263238"/>
<path d="M9.97291 28.7573L8.44098 22.6116C9.39694 21.7017 10.0009 20.4217 10.0009 18.9998C10.0009 16.2439 7.75701 14 5.00114 14C2.24526 14 0.00136518 16.2439 0.00136518 18.9998C0.00136518 20.4217 0.605338 21.7017 1.56129 22.6116L0.0293639 28.7573C-0.0646318 29.1353 0.071362 29.5353 0.375348 29.7813C0.679334 30.0253 1.09931 30.0673 1.4473 29.8953L5.00114 28.1174L8.55297 29.8953C8.69497 29.9633 8.84896 29.9993 9.00095 29.9993C9.22294 29.9993 9.44493 29.9253 9.62692 29.7813C9.93091 29.5353 10.0669 29.1373 9.97291 28.7573ZM5.00114 21.9996C3.34721 21.9996 2.00127 20.6537 2.00127 18.9998C2.00127 17.3458 3.34721 15.9999 5.00114 15.9999C6.65506 15.9999 8.001 17.3458 8.001 18.9998C8.001 20.6537 6.65506 21.9996 5.00114 21.9996Z" fill="#263238"/>
<path d="M22.0012 9.99954C20.8993 9.99954 20.0013 9.10158 20.0013 7.99963V0H8.00186C6.89991 0 6.00195 0.897959 6.00195 1.99991V12.1014C9.3858 12.5914 12.0017 15.4813 12.0017 18.9991C12.0017 20.5111 11.5217 21.947 10.6337 23.1409L11.8457 27.9987H28.0009C29.1049 27.9987 30.0009 27.1028 30.0009 25.9988V9.99954H22.0012ZM11.0017 7.99963C10.4497 7.99963 10.0018 7.55165 10.0018 6.99968C10.0018 6.4477 10.4497 5.99972 11.0017 5.99972H17.0014C17.5534 5.99972 18.0014 6.4477 18.0014 6.99968C18.0014 7.55165 17.5534 7.99963 17.0014 7.99963H11.0017ZM25.0011 19.9991H15.0015C14.4496 19.9991 14.0016 19.5511 14.0016 18.9991C14.0016 18.4472 14.4496 17.9992 15.0015 17.9992H25.0011C25.5531 17.9992 26.001 18.4472 26.001 18.9991C26.001 19.5511 25.5531 19.9991 25.0011 19.9991ZM25.0011 13.9994H13.0016C12.4497 13.9994 12.0017 13.5514 12.0017 12.9994C12.0017 12.4474 12.4497 11.9994 13.0016 11.9994H25.0011C25.5531 11.9994 26.001 12.4474 26.001 12.9994C26.001 13.5514 25.5531 13.9994 25.0011 13.9994Z" fill="#263238"/>
</svg>
