<svg width="30" height="30" viewBox="0 0 30 30" fill="none" xmlns="http://www.w3.org/2000/svg">
<path d="M11.5624 0H2.18742C0.981216 0 0 0.981216 0 2.18742V7.81242C0 9.01886 0.981216 10.0001 2.18742 10.0001H11.5624C12.7689 10.0001 13.7501 9.01886 13.7501 7.81242V2.18742C13.7501 0.981216 12.7689 0 11.5624 0Z" fill="white"/>
<path d="M11.5624 12.5H2.18742C0.981216 12.5 0 13.4812 0 14.6877V27.8127C0 29.0189 0.981216 30.0001 2.18742 30.0001H11.5624C12.7689 30.0001 13.7501 29.0189 13.7501 27.8127V14.6877C13.7501 13.4812 12.7689 12.5 11.5624 12.5Z" fill="white"/>
<path d="M27.8127 20H18.4377C17.2312 20 16.25 20.9812 16.25 22.1877V27.8127C16.25 29.0189 17.2312 30.0001 18.4377 30.0001H27.8127C29.0189 30.0001 30.0001 29.0189 30.0001 27.8127V22.1877C30.0001 20.9812 29.0189 20 27.8127 20Z" fill="white"/>
<path d="M27.8127 0H18.4377C17.2312 0 16.25 0.981216 16.25 2.18742V15.3124C16.25 16.5189 17.2312 17.5001 18.4377 17.5001H27.8127C29.0189 17.5001 30.0001 16.5189 30.0001 15.3124V2.18742C30.0001 0.981216 29.0189 0 27.8127 0V0Z" fill="white"/>
</svg>
