<svg width="26" height="26" viewBox="0 0 26 26" fill="none" xmlns="http://www.w3.org/2000/svg">
<path d="M23.6225 10.8776H22.7498V10.8327H12.9998V15.166H19.1223C18.2291 17.6886 15.829 19.4993 12.9998 19.4993C9.41021 19.4993 6.49984 16.589 6.49984 12.9993C6.49984 9.40972 9.41021 6.49935 12.9998 6.49935C14.6568 6.49935 16.1643 7.12443 17.312 8.14547L20.3763 5.08127C18.4414 3.27806 15.8533 2.16602 12.9998 2.16602C7.01713 2.16602 2.1665 7.01664 2.1665 12.9993C2.1665 18.9821 7.01713 23.8327 12.9998 23.8327C18.9825 23.8327 23.8332 18.9821 23.8332 12.9993C23.8332 12.273 23.7584 11.5639 23.6225 10.8776Z" fill="#FFC107"/>
<path d="M3.41553 7.95697L6.97482 10.5673C7.9379 8.18285 10.2703 6.49935 12.9998 6.49935C14.6567 6.49935 16.1642 7.12443 17.312 8.14547L20.3762 5.08127C18.4414 3.27806 15.8533 2.16602 12.9998 2.16602C8.83869 2.16602 5.23011 4.51522 3.41553 7.95697Z" fill="#FF3D00"/>
<path d="M13.0003 23.8327C15.7986 23.8327 18.3412 22.7619 20.2635 21.0204L16.9106 18.1831C15.7864 19.0381 14.4127 19.5005 13.0003 19.4994C10.1826 19.4994 7.79004 17.7027 6.88871 15.1953L3.35596 17.9172C5.14887 21.4256 8.78996 23.8327 13.0003 23.8327Z" fill="#4CAF50"/>
<path d="M23.6226 10.8789H22.75V10.834H13V15.1673H19.1225C18.6952 16.3679 17.9256 17.417 16.9087 18.1849L16.9103 18.1839L20.2632 21.0211C20.026 21.2367 23.8333 18.4173 23.8333 13.0007C23.8333 12.2743 23.7586 11.5652 23.6226 10.8789Z" fill="#1976D2"/>
</svg>
