<svg width="48" height="48" viewBox="0 0 48 48" fill="none" xmlns="http://www.w3.org/2000/svg">
<path fill-rule="evenodd" clip-rule="evenodd" d="M36.806 11.266C33.416 7.872 28.908 6.002 24.106 6C14.21 6 6.154 14.054 6.15 23.954C6.15 27.118 6.976 30.206 8.546 32.93L6 42.232L15.518 39.734C18.142 41.164 21.094 41.918 24.098 41.92H24.106C34 41.92 42.056 33.866 42.06 23.966C42.06 19.17 40.196 14.66 36.806 11.266ZM24.106 38.89H24.1C21.422 38.888 18.796 38.17 16.504 36.808L15.96 36.484L10.312 37.966L11.818 32.46L11.464 31.896C9.97 29.52 9.182 26.774 9.182 23.954C9.186 15.726 15.88 9.032 24.112 9.032C28.098 9.034 31.844 10.588 34.662 13.408C37.478 16.23 39.03 19.978 39.028 23.966C39.024 32.194 32.33 38.89 24.106 38.89ZM32.292 27.712C31.842 27.486 29.638 26.402 29.226 26.252C28.816 26.102 28.518 26.028 28.218 26.476C27.918 26.924 27.058 27.934 26.796 28.234C26.534 28.534 26.272 28.57 25.824 28.346C25.376 28.122 23.93 27.648 22.216 26.12C20.882 24.93 19.982 23.462 19.72 23.012C19.458 22.562 19.692 22.32 19.918 22.096C20.12 21.896 20.366 21.572 20.59 21.31C20.814 21.048 20.888 20.862 21.038 20.562C21.188 20.262 21.114 20 21 19.776C20.888 19.55 19.99 17.342 19.616 16.444C19.254 15.574 18.884 15.69 18.608 15.678C18.348 15.666 18.048 15.662 17.75 15.662C17.45 15.662 16.964 15.774 16.552 16.222C16.14 16.672 14.982 17.756 14.982 19.964C14.982 22.172 16.59 24.306 16.814 24.606C17.038 24.906 19.978 29.436 24.478 31.38C25.55 31.842 26.386 32.118 27.036 32.326C28.11 32.668 29.088 32.618 29.862 32.504C30.724 32.376 32.516 31.42 32.89 30.372C33.264 29.324 33.264 28.426 33.152 28.238C33.04 28.05 32.738 27.936 32.292 27.712Z" fill="#223844"/>
</svg>
