<svg width="20" height="20" viewBox="0 0 20 20" fill="none" xmlns="http://www.w3.org/2000/svg">
<path d="M19.2841 7.27608L13.3333 6.41124L10.6731 1.01827C10.6005 0.870614 10.4809 0.751083 10.3333 0.678427C9.96297 0.495614 9.51297 0.647958 9.32781 1.01827L6.66766 6.41124L0.716878 7.27608C0.552815 7.29952 0.402815 7.37686 0.287971 7.49405C0.149131 7.63675 0.0726244 7.82874 0.0752613 8.02782C0.0778981 8.2269 0.159463 8.4168 0.302034 8.55577L4.6075 12.7534L3.59031 18.6808C3.56646 18.8187 3.58172 18.9605 3.63436 19.0901C3.687 19.2198 3.77491 19.3321 3.88813 19.4143C4.00135 19.4965 4.13535 19.5454 4.27492 19.5554C4.4145 19.5653 4.55407 19.5359 4.67781 19.4706L10.0005 16.6722L15.3231 19.4706C15.4684 19.548 15.6372 19.5737 15.7989 19.5456C16.2067 19.4753 16.4809 19.0886 16.4106 18.6808L15.3934 12.7534L19.6989 8.55577C19.8161 8.44093 19.8934 8.29093 19.9169 8.12686C19.9802 7.71671 19.6942 7.33702 19.2841 7.27608Z" fill="#F1CA6D"/>
</svg>
