<svg width="30" height="26" viewBox="0 0 30 26" fill="none" xmlns="http://www.w3.org/2000/svg">
<path d="M0 22.75C0 23.6473 0.671719 24.375 1.5 24.375H28.5C29.3283 24.375 30 23.6473 30 22.75V6.5H0V22.75ZM21 12.1875C21 11.7386 21.3356 11.375 21.75 11.375H26.25C26.6644 11.375 27 11.7386 27 12.1875V13.8125C27 14.2614 26.6644 14.625 26.25 14.625H21.75C21.3356 14.625 21 14.2614 21 13.8125V12.1875ZM21 18.2812C21 18.0568 21.1678 17.875 21.375 17.875H26.625C26.8322 17.875 27 18.0568 27 18.2812V19.0938C27 19.3182 26.8322 19.5 26.625 19.5H21.375C21.1678 19.5 21 19.3182 21 19.0938V18.2812ZM3 13.4062C3 13.1818 3.16781 13 3.375 13H17.625C17.8322 13 18 13.1818 18 13.4062V14.2188C18 14.4432 17.8322 14.625 17.625 14.625H3.375C3.16781 14.625 3 14.4432 3 14.2188V13.4062ZM3 18.2812C3 18.0568 3.16781 17.875 3.375 17.875H11.625C11.8322 17.875 12 18.0568 12 18.2812V19.0938C12 19.3182 11.8322 19.5 11.625 19.5H3.375C3.16781 19.5 3 19.3182 3 19.0938V18.2812ZM29.25 1.625H0.75C0.335625 1.625 0 1.98859 0 2.4375V4.875H30V2.4375C30 1.98859 29.6644 1.625 29.25 1.625Z" fill="#263238"/>
</svg>
