<svg width="30" height="30" viewBox="0 0 30 30" fill="none" xmlns="http://www.w3.org/2000/svg">
<path d="M4.99902 15C4.99902 15.3315 5.13072 15.6495 5.36514 15.8839C5.59956 16.1183 5.9175 16.25 6.24902 16.25H15.7365L12.8615 19.1125C12.7444 19.2287 12.6514 19.367 12.5879 19.5193C12.5244 19.6716 12.4918 19.835 12.4918 20C12.4918 20.165 12.5244 20.3284 12.5879 20.4807C12.6514 20.633 12.7444 20.7713 12.8615 20.8875C12.9777 21.0047 13.116 21.0977 13.2683 21.1611C13.4206 21.2246 13.584 21.2573 13.749 21.2573C13.914 21.2573 14.0774 21.2246 14.2297 21.1611C14.3821 21.0977 14.5203 21.0047 14.6365 20.8875L19.6365 15.8875C19.7503 15.7686 19.8395 15.6284 19.899 15.475C20.024 15.1707 20.024 14.8293 19.899 14.525C19.8395 14.3716 19.7503 14.2314 19.6365 14.1125L14.6365 9.1125C14.52 8.99595 14.3816 8.9035 14.2293 8.84043C14.0771 8.77735 13.9138 8.74489 13.749 8.74489C13.5842 8.74489 13.421 8.77735 13.2687 8.84043C13.1164 8.9035 12.9781 8.99595 12.8615 9.1125C12.745 9.22905 12.6525 9.36741 12.5894 9.51969C12.5264 9.67197 12.4939 9.83518 12.4939 10C12.4939 10.1648 12.5264 10.328 12.5894 10.4803C12.6525 10.6326 12.745 10.771 12.8615 10.8875L15.7365 13.75H6.24902C5.9175 13.75 5.59956 13.8817 5.36514 14.1161C5.13072 14.3505 4.99902 14.6685 4.99902 15ZM21.249 2.5H8.74902C7.75446 2.5 6.80063 2.89509 6.09737 3.59835C5.39411 4.30161 4.99902 5.25544 4.99902 6.25V10C4.99902 10.3315 5.13072 10.6495 5.36514 10.8839C5.59956 11.1183 5.9175 11.25 6.24902 11.25C6.58054 11.25 6.89849 11.1183 7.13291 10.8839C7.36733 10.6495 7.49902 10.3315 7.49902 10V6.25C7.49902 5.91848 7.63072 5.60054 7.86514 5.36612C8.09956 5.1317 8.4175 5 8.74902 5H21.249C21.5805 5 21.8985 5.1317 22.1329 5.36612C22.3673 5.60054 22.499 5.91848 22.499 6.25V23.75C22.499 24.0815 22.3673 24.3995 22.1329 24.6339C21.8985 24.8683 21.5805 25 21.249 25H8.74902C8.4175 25 8.09956 24.8683 7.86514 24.6339C7.63072 24.3995 7.49902 24.0815 7.49902 23.75V20C7.49902 19.6685 7.36733 19.3505 7.13291 19.1161C6.89849 18.8817 6.58054 18.75 6.24902 18.75C5.9175 18.75 5.59956 18.8817 5.36514 19.1161C5.13072 19.3505 4.99902 19.6685 4.99902 20V23.75C4.99902 24.7446 5.39411 25.6984 6.09737 26.4017C6.80063 27.1049 7.75446 27.5 8.74902 27.5H21.249C22.2436 27.5 23.1974 27.1049 23.9007 26.4017C24.6039 25.6984 24.999 24.7446 24.999 23.75V6.25C24.999 5.25544 24.6039 4.30161 23.9007 3.59835C23.1974 2.89509 22.2436 2.5 21.249 2.5Z" fill="white"/>
</svg>
