<svg width="30" height="30" viewBox="0 0 30 30" fill="none" xmlns="http://www.w3.org/2000/svg">
<path d="M29.5301 14.1126C29.4999 14.0923 29.4687 14.0736 29.4365 14.0566L27.3076 12.9102L15.5015 19.1609C15.1878 19.327 14.8123 19.327 14.4986 19.1609L2.69261 12.9102L0.563646 14.0566C0.0462217 14.3312 -0.150653 14.9733 0.124005 15.4907C0.141081 15.5229 0.159789 15.5542 0.180066 15.5844L15 23.4305L29.82 15.5844C30.1464 15.0979 30.0167 14.439 29.5301 14.1126Z" fill="#263238"/>
<path d="M29.8715 20.9202C29.7722 20.7363 29.6214 20.5854 29.4375 20.4863L27.3086 19.3398L15.5026 25.5906C15.1889 25.7567 14.8134 25.7567 14.4997 25.5906L2.69363 19.3398L0.564673 20.4863C0.0439213 20.7673 -0.150317 21.4173 0.130745 21.938C0.229998 22.1219 0.380856 22.2728 0.564673 22.3719L14.4933 29.872C14.8103 30.0427 15.1919 30.0427 15.509 29.872L29.4375 22.3719C29.9582 22.0909 30.1525 21.4409 29.8715 20.9202Z" fill="#263238"/>
<path d="M29.5301 7.6841C29.4999 7.66382 29.4687 7.64511 29.4365 7.62804L15.5079 0.128022C15.1909 -0.042674 14.8093 -0.042674 14.4922 0.128022L0.563646 7.62804C0.0462217 7.9027 -0.150653 8.5448 0.124005 9.06222C0.141081 9.09437 0.159789 9.12563 0.180066 9.15589L15 17.0019L29.82 9.15589C30.1464 8.66942 30.0167 8.01049 29.5301 7.6841Z" fill="#263238"/>
</svg>
