<svg width="30" height="30" viewBox="0 0 30 30" fill="none" xmlns="http://www.w3.org/2000/svg">
<path d="M14.9414 8.90625C11.5494 8.90625 8.78906 11.6665 8.78906 15.0586C8.78906 18.4506 11.5494 21.2109 14.9414 21.2109C18.3335 21.2109 21.0938 18.4506 21.0938 15.0586C21.0938 11.6665 18.3335 8.90625 14.9414 8.90625ZM14.9414 19.4531C12.5184 19.4531 10.5469 17.4816 10.5469 15.0586C10.5469 12.6356 12.5184 10.6641 14.9414 10.6641C17.3644 10.6641 19.3359 12.6356 19.3359 15.0586C19.3359 17.4816 17.3644 19.4531 14.9414 19.4531Z" fill="#263238"/>
<path d="M29.3992 12.4673L25.7243 11.2812C25.5853 10.8838 25.4222 10.4907 25.2359 10.1061L26.9139 6.751C27.083 6.41285 27.0169 6.00428 26.7491 5.7365L24.2634 3.25084C23.9957 2.98307 23.5888 2.91779 23.2489 3.08602L19.8938 4.76402C19.5093 4.57775 19.1162 4.41469 18.7188 4.27564L17.5326 0.600762C17.4134 0.242051 17.0777 0 16.6992 0H13.1836C12.8051 0 12.4695 0.242051 12.3502 0.60082L11.164 4.2757C10.7666 4.41475 10.3735 4.57781 9.98895 4.76408L6.63381 3.08607C6.29566 2.91527 5.88709 2.98137 5.61932 3.2509L3.13365 5.7365C2.86588 6.00428 2.79979 6.41285 2.96883 6.751L4.64684 10.1061C4.46057 10.4907 4.2975 10.8837 4.15846 11.2812L0.600762 12.4673C0.242051 12.5867 0 12.9223 0 13.3008V16.8164C0 17.1949 0.242051 17.5305 0.60082 17.6498L4.15852 18.836C4.29756 19.2334 4.46063 19.6265 4.64689 20.0111L2.96889 23.3662C2.79979 23.7043 2.86588 24.1129 3.13371 24.3807L5.61937 26.8663C5.88891 27.1359 6.2983 27.202 6.63387 27.0312L9.989 25.3532C10.3736 25.5394 10.7666 25.7025 11.164 25.8415L12.3502 29.3992C12.4695 29.7579 12.8051 30 13.1836 30H16.6992C17.0777 30 17.4134 29.7579 17.5327 29.3992L18.7188 25.8415C19.1162 25.7024 19.5093 25.5394 19.8939 25.3531L23.249 27.0311C23.5871 27.1993 23.994 27.1341 24.2635 26.8663L26.7492 24.3806C27.0169 24.1129 27.083 23.7043 26.914 23.3661L25.236 20.011C25.4222 19.6264 25.5853 19.2334 25.7244 18.836L29.3992 17.6498C29.7579 17.5305 30 17.1949 30 16.8164V13.3008C30 12.9223 29.7579 12.5867 29.3992 12.4673ZM14.9414 22.9688C10.5795 22.9688 7.03125 19.4205 7.03125 15.0586C7.03125 10.6967 10.5795 7.14844 14.9414 7.14844C19.3033 7.14844 22.8516 10.6967 22.8516 15.0586C22.8516 19.4205 19.3033 22.9688 14.9414 22.9688Z" fill="#263238"/>
<path d="M14.9414 12.4219C13.4875 12.4219 12.3047 13.6046 12.3047 15.0586C12.3047 16.5125 13.4875 17.6953 14.9414 17.6953C16.3954 17.6953 17.5781 16.5125 17.5781 15.0586C17.5781 13.6046 16.3954 12.4219 14.9414 12.4219Z" fill="#263238"/>
</svg>
